#!OML:ASF X:\für Bonn\!DataBase\2005_08_12_Daniel\c3d\Daniel.ASF
:FULLY-SPECIFIED
:DEGREES
1
root -5.14841 16.0024 0.186473 313.949 82.7158 322.266
lowerback 25.1053 -1.40256 4.67204
upperback 5.44547 -0.126766 0.812433
thorax -7.93519 0.0310944 -1.77054
lowerneck -5.80161 1.80526 -3.18847
upperneck -12.8838 2.74131 -1.95505
head -3.1513 1.73695 -0.126823
rclavicle -4.94477e-015 6.95746e-015
rhumerus -57.984 6.52747 -97.8493
rradius 65.335
rwrist -6.07453
rhand -36.203 26.9947
rfingers 7.12502
rthumb -9.30572 -2.77995
lclavicle -4.94477e-015 6.95746e-015
lhumerus 117.35 179.756 276.824
lradius 76.4166
lwrist 13.3947
lhand -17.3747 -11.0266
lfingers 7.12502
lthumb 8.87377 18.7668
rfemur -22.9716 6.18968 25.5257
rtibia 63.4331
rfoot -23.6665 4.21875
rtoes -14.0989
lfemur -21.4905 -5.99447 -13.7377
ltibia 68.7373
lfoot -34.4656 -0.182101
ltoes -12.7958
2
root -4.9307 15.9023 0.192316 313.981 82.5211 322.306
lowerback 25.2181 -1.34054 4.82797
upperback 5.2787 -0.005076 0.804776
thorax -8.17041 0.0737467 -1.90586
lowerneck -6.19722 1.65353 -3.41809
upperneck -12.7714 2.58274 -1.8172
head -3.04667 1.66343 -0.0358607
rclavicle -1.49089e-016 -2.80286e-014
rhumerus -55.8975 5.75779 -98.5102
rradius 66.0741
rwrist -5.93334
rhand -36.2959 27.1388
rfingers 7.12502
rthumb -9.39532 -2.63177
lclavicle -1.49089e-016 -2.80286e-014
lhumerus 119.513 179.719 278.016
lradius 76.693
lwrist 13.0535
lhand -16.479 -11.3396
lfingers 7.12502
lthumb 9.738 18.4153
rfemur -22.4984 6.29351 25.8022
rtibia 64.5331
rfoot -25.4482 4.1934
rtoes -14.5375
lfemur -20.5994 -5.97385 -13.8737
ltibia 69.47
lfoot -36.8546 0.358432
ltoes -13.6841
3
root -4.70897 15.8371 0.199532 314.29 82.3834 322.565
lowerback 25.2009 -1.27383 4.94698
upperback 5.08374 0.0986034 0.761796
thorax -8.37149 0.105994 -2.0536
lowerneck -6.63317 1.51715 -3.60468
upperneck -12.5036 2.44373 -1.68056
head -2.88113 1.5922 0.0483388
rclavicle -2.68359e-015 7.55382e-015
rhumerus -53.8788 5.16405 -99.3579
rradius 67.0661
rwrist -5.7475
rhand -36.3147 27.3343
rfingers 7.12502
rthumb -9.41342 -2.43546
lclavicle -2.68359e-015 7.55382e-015
lhumerus 122.031 179.955 279.194
lradius 77.0279
lwrist 12.5753
lhand -15.5443 -11.9207
lfingers 7.12502
lthumb 10.6397 17.7899
rfemur -21.8849 6.38925 25.9853
rtibia 65.208
rfoot -26.8174 4.20955
rtoes -14.7702
lfemur -19.7021 -5.93144 -14.0972
ltibia 69.9245
lfoot -38.7594 0.996899
ltoes -14.6035
4
root -4.4875 15.7995 0.208456 314.626 82.2673 322.838
lowerback 25.1108 -1.19688 5.02779
upperback 4.87271 0.201183 0.732819
thorax -8.55297 0.137544 -2.16355
lowerneck -7.07478 1.37082 -3.84501
upperneck -12.1311 2.29531 -1.51885
head -2.68131 1.51409 0.149209
rclavicle 9.81499e-015 -1.36167e-014
rhumerus -51.637 4.97971 -100.371
rradius 67.956
rwrist -5.54276
rhand -36.297 27.5507
rfingers 7.12502
rthumb -9.39636 -2.2199
lclavicle 9.81499e-015 -1.36167e-014
lhumerus 124.767 180.45 280.367
lradius 77.5106
lwrist 12.1322
lhand -14.6635 -12.6329
lfingers 7.12502
lthumb 11.4893 17.0322
rfemur -21.1528 6.48369 26.1329
rtibia 65.5339
rfoot -27.7606 4.25237
rtoes -14.8395
lfemur -18.7458 -5.86499 -14.3421
ltibia 70.1066
lfoot -40.1194 1.69493
ltoes -15.4173
5
root -4.2666 15.8019 0.217403 314.9 82.1736 322.844
lowerback 24.7249 -1.12997 5.14396
upperback 4.6004 0.274328 0.697972
thorax -8.65143 0.151292 -2.28906
lowerneck -7.52276 1.26419 -4.08958
upperneck -11.6357 2.20117 -1.33557
head -2.44192 1.45787 0.256831
rclavicle -4.32357e-015 -3.57812e-015
rhumerus -49.144 5.40637 -101.546
rradius 68.703
rwrist -5.3968
rhand -36.2098 27.6605
rfingers 7.12502
rthumb -9.31226 -2.11384
lclavicle -4.32357e-015 -3.57812e-015
lhumerus 127.53 181.128 281.463
lradius 78.2242
lwrist 11.7265
lhand -14.008 -13.4483
lfingers 7.12502
lthumb 12.1214 16.1806
rfemur -20.4732 6.55617 26.2532
rtibia 65.485
rfoot -28.3214 4.21734
rtoes -15.0353
lfemur -17.9256 -5.78172 -14.545
ltibia 69.98
lfoot -40.8626 2.38223
ltoes -16.2033
6
root -4.04317 15.837 0.228204 315.105 82.1319 322.652
lowerback 24.045 -1.05736 5.23754
upperback 4.3086 0.327434 0.679269
thorax -8.61837 0.157238 -2.37488
lowerneck -7.97642 1.14658 -4.44334
upperneck -11.0037 2.10272 -1.08264
head -2.16166 1.39734 0.403939
rclavicle 1.04362e-015 4.07509e-015
rhumerus -46.5058 6.53377 -102.76
rradius 69.5189
rwrist -5.30533
rhand -36.0054 27.5319
rfingers 7.12502
rthumb -9.11497 -2.25114
lclavicle 1.04362e-015 4.07509e-015
lhumerus 130.195 182.046 282.496
lradius 79.2649
lwrist 11.5034
lhand -13.5438 -14.0873
lfingers 7.12502
lthumb 12.569 15.5146
rfemur -19.7765 6.56179 26.3268
rtibia 65.0995
rfoot -28.5207 4.17212
rtoes -15.2617
lfemur -17.1966 -5.70596 -14.7088
ltibia 69.5651
lfoot -40.9392 2.90756
ltoes -16.7572
7
root -3.81526 15.8929 0.239786 315.079 82.1319 322.266
lowerback 23.2856 -1.00108 5.33741
upperback 3.98592 0.352467 0.641442
thorax -8.5762 0.14832 -2.47546
lowerneck -8.27406 1.058 -4.69523
upperneck -10.3131 2.02066 -0.883634
head -1.88974 1.33843 0.514344
rclavicle -2.13694e-015 -1.19271e-015
rhumerus -43.9696 8.14996 -103.975
rradius 70.5775
rwrist -5.18067
rhand -35.6205 27.1656
rfingers 7.12502
rthumb -8.74355 -2.63334
lclavicle -2.13694e-015 -1.19271e-015
lhumerus 132.25 183.606 283.421
lradius 80.7303
lwrist 11.8803
lhand -13.6166 -14.6292
lfingers 7.12502
lthumb 12.4988 14.977
rfemur -18.9004 6.51342 26.3749
rtibia 64.39
rfoot -28.4012 4.1281
rtoes -15.2163
lfemur -16.3291 -5.63872 -14.8406
ltibia 68.8642
lfoot -40.5618 3.20961
ltoes -17.0567
8
root -3.57801 15.9732 0.25375 314.965 82.1431 321.891
lowerback 22.5044 -0.960711 5.44827
upperback 3.67372 0.356002 0.579338
thorax -8.50813 0.129978 -2.60193
lowerneck -8.46788 0.986487 -4.92301
upperneck -9.55792 1.95142 -0.662678
head -1.6175 1.28157 0.62618
rclavicle 1.38404e-014 -1.43125e-014
rhumerus -41.7206 10.2017 -105.094
rradius 71.9239
rwrist -4.94419
rhand -35.1433 26.8385
rfingers 7.12502
rthumb -8.28303 -2.97913
lclavicle 1.38404e-014 -1.43125e-014
lhumerus 133.936 185.216 284.09
lradius 82.3167
lwrist 12.4572
lhand -13.8038 -15.0582
lfingers 7.12502
lthumb 12.3183 14.5589
rfemur -17.7143 6.41448 26.4079
rtibia 63.3114
rfoot -27.9492 4.12909
rtoes -14.8434
lfemur -15.1896 -5.51924 -14.9306
ltibia 67.8566
lfoot -39.8438 3.27113
ltoes -17.1176
9
root -3.32854 16.0836 0.270696 314.666 82.2142 321.361
lowerback 21.6286 -0.955828 5.4969
upperback 3.3352 0.291571 0.521673
thorax -8.42084 0.080505 -2.66756
lowerneck -8.49969 0.983041 -5.07616
upperneck -8.77344 1.9506 -0.490425
head -1.36527 1.25487 0.709395
rclavicle -1.09829e-014 -1.98785e-016
rhumerus -40.0483 12.5083 -106.107
rradius 73.4678
rwrist -4.58485
rhand -34.6178 26.9017
rfingers 7.12502
rthumb -7.77592 -2.9353
lclavicle -1.09829e-014 -1.98785e-016
lhumerus 135.39 186.821 284.52
lradius 84.2382
lwrist 13.2728
lhand -13.9871 -15.0881
lfingers 7.12502
lthumb 12.1415 14.5396
rfemur -16.2815 6.24326 26.4104
rtibia 61.8342
rfoot -27.0596 4.11813
rtoes -14.3334
lfemur -13.8838 -5.34245 -14.9877
ltibia 66.5544
lfoot -38.766 3.15394
ltoes -17.0244
10
root -3.06839 16.2218 0.289435 314.224 82.2994 320.702
lowerback 20.6427 -0.950865 5.5607
upperback 2.97999 0.221717 0.450507
thorax -8.28842 0.0283644 -2.75521
lowerneck -8.40883 0.990873 -5.20179
upperneck -7.93001 1.95172 -0.312088
head -1.11657 1.22603 0.789451
rclavicle 2.98177e-015 2.0276e-014
rhumerus -38.997 14.7475 -106.995
rradius 75.2068
rwrist -3.92468
rhand -34.155 27.3824
rfingers 7.12502
rthumb -7.3292 -2.47063
lclavicle 2.98177e-015 2.0276e-014
lhumerus 136.6 188.505 284.706
lradius 86.6657
lwrist 14.2071
lhand -13.9197 -14.479
lfingers 7.12502
lthumb 12.2065 15.1449
rfemur -14.5872 5.95669 26.3741
rtibia 59.9205
rfoot -25.6092 4.24111
rtoes -13.6385
lfemur -12.4925 -5.04509 -14.9611
ltibia 65.0148
lfoot -37.2355 2.825
ltoes -16.7934
11
root -2.7999 16.3921 0.310254 313.671 82.4308 319.97
lowerback 19.6266 -0.959417 5.57409
upperback 2.60957 0.123559 0.393301
thorax -8.1538 -0.035591 -2.79238
lowerneck -8.20878 1.03251 -5.24013
upperneck -7.03869 1.97848 -0.235491
head -0.87105 1.20705 0.822792
rclavicle -7.45443e-016 -9.93923e-016
rhumerus -38.428 17.0175 -107.743
rradius 77.0911
rwrist -2.96993
rhand -33.7934 28.1191
rfingers 7.12502
rthumb -6.98013 -1.74583
lclavicle -7.45443e-016 -9.93923e-016
lhumerus 137.654 190.066 284.695
lradius 89.2541
lwrist 15.0847
lhand -13.7186 -13.5852
lfingers 7.12502
lthumb 12.4004 16.027
rfemur -12.6326 5.54418 26.2609
rtibia 57.5922
rfoot -23.584 4.46202
rtoes -12.7544
lfemur -11.0573 -4.71106 -14.9098
ltibia 63.28
lfoot -35.1799 2.4228
ltoes -16.4789
12
root -2.52276 16.5932 0.333206 313.03 82.5714 319.141
lowerback 18.5208 -0.963821 5.56808
upperback 2.2365 0.0236565 0.350513
thorax -7.96784 -0.0978492 -2.80397
lowerneck -7.83911 1.09742 -5.14623
upperneck -6.21978 2.01325 -0.266489
head -0.674968 1.19214 0.798737
rclavicle 2.83268e-015 -1.80894e-014
rhumerus -38.0751 19.3167 -108.329
rradius 78.9081
rwrist -1.89268
rhand -33.7219 28.9178
rfingers 7.12502
rthumb -6.91113 -0.949394
lclavicle 2.83268e-015 -1.80894e-014
lhumerus 138.679 191.568 284.462
lradius 91.8104
lwrist 15.8302
lhand -13.3819 -12.6561
lfingers 7.12502
lthumb 12.725 16.9362
rfemur -10.5368 5.07664 26.1025
rtibia 54.8915
rfoot -20.9685 4.72032
rtoes -11.5352
lfemur -9.60818 -4.28528 -14.7911
ltibia 61.3275
lfoot -32.5005 1.91689
ltoes -16.1055
